<?xml version="1.0" encoding="UTF-8" standalone="no"?>
<svg
   height="64.800003"
   width="64.295776"
   version="1.1"
   id="svg18"
   sodipodi:docname="logo.svg"
   xmlns:inkscape="http://www.inkscape.org/namespaces/inkscape"
   xmlns:sodipodi="http://sodipodi.sourceforge.net/DTD/sodipodi-0.dtd"
   xmlns:xlink="http://www.w3.org/1999/xlink"
   xmlns="http://www.w3.org/2000/svg"
   xmlns:svg="http://www.w3.org/2000/svg">
  <sodipodi:namedview
     id="namedview20"
     pagecolor="#ffffff"
     bordercolor="#000000"
     borderopacity="0.25"
     inkscape:showpageshadow="2"
     inkscape:pageopacity="0.0"
     inkscape:pagecheckerboard="0"
     inkscape:deskcolor="#d1d1d1"
     showgrid="false" />
  <defs
     id="SvgjsDefs1001">
    <linearGradient
       id="SvgjsLinearGradient1015">
      <stop
         id="SvgjsStop1016"
         stop-color="#00ddff"
         offset="0" />
      <stop
         id="SvgjsStop1017"
         stop-color="#ff00d4"
         offset="1" />
    </linearGradient>
    <linearGradient
       inkscape:collect="always"
       xlink:href="#SvgjsLinearGradient1015"
       id="linearGradient214"
       gradientTransform="scale(0.99610177,1.0039135)"
       x1="6.4244881"
       y1="6.033865"
       x2="93.967583"
       y2="6.033865"
       gradientUnits="userSpaceOnUse" />
    <linearGradient
       inkscape:collect="always"
       xlink:href="#SvgjsLinearGradient1015"
       id="linearGradient216"
       gradientTransform="scale(0.99610177,1.0039135)"
       x1="6.4244881"
       y1="6.033865"
       x2="93.967583"
       y2="6.033865"
       gradientUnits="userSpaceOnUse" />
  </defs>
  <g
     id="SvgjsG1007"
     featurekey="rootContainer"
     fill="#ffa0e5"
     transform="translate(-179,-13.999999)">
    <path
       fill-rule="nonzero"
       d="M 0,0 H 419 V 93 H 0 v 0 z M 4,4 V 89 H 415 V 4 Z"
       id="path6" />
  </g>
  <g
     id="SvgjsG1009"
     featurekey="inlineSymbolFeature-0"
     transform="matrix(0.73732141,0,0,0.73732141,-4.71844,-4.4663086)"
     fill="url(#SvgjsLinearGradient1015)"
     style="fill:url(#linearGradient216)">
    <path
       d="m 93.361,20.042 c -0.316,-0.311 -0.825,-0.308 -1.136,0.009 l -0.461,0.468 -1.13,-1.111 1.225,-1.246 c 1.322,-1.343 1.304,-3.504 -0.038,-4.825 L 86.104,7.716 C 84.761,6.394 82.6,6.414 81.279,7.757 L 80.054,9.003 78.925,7.892 79.385,7.424 C 79.696,7.108 79.692,6.6 79.377,6.289 79.06,5.977 78.55,5.981 78.24,6.297 l -1.945,1.977 c -0.31,0.316 -0.305,0.826 0.011,1.137 0.316,0.311 0.825,0.306 1.135,-0.009 l 0.461,-0.469 1.129,1.11 -2.917,2.966 -1.129,-1.111 0.461,-0.469 c 0.313,-0.316 0.307,-0.824 -0.008,-1.135 -0.317,-0.31 -0.826,-0.308 -1.137,0.009 l -1.945,1.976 c -0.31,0.316 -0.304,0.826 0.012,1.137 0.317,0.311 0.825,0.306 1.135,-0.009 l 0.461,-0.469 1.129,1.111 -2.917,2.967 -1.129,-1.111 0.461,-0.469 c 0.31,-0.316 0.306,-0.825 -0.009,-1.135 -0.316,-0.311 -0.826,-0.308 -1.138,0.008 l -1.944,1.977 c -0.31,0.316 -0.305,0.826 0.01,1.137 0.316,0.311 0.825,0.307 1.136,-0.009 l 0.461,-0.469 1.129,1.111 -3.273,3.329 c -1.057,1.075 -1.255,2.672 -0.604,3.945 L 52.83,39.45 c -7.378,-3.968 -16.773,-2.798 -22.943,3.476 -1.072,1.09 -1.983,2.277 -2.745,3.529 -4.62,0.428 -8.983,2.329 -12.34,5.743 -0.562,0.571 -1.066,1.161 -1.523,1.764 -0.636,0.508 -1.25,1.055 -1.833,1.649 -8.511,8.654 -5.574,20.73 3.715,29.867 9.291,9.137 21.415,11.873 29.926,3.219 0.585,-0.595 1.122,-1.219 1.621,-1.864 0.594,-0.467 1.175,-0.979 1.736,-1.55 3.357,-3.413 5.185,-7.806 5.536,-12.431 1.24,-0.782 2.412,-1.713 3.485,-2.804 6.163,-6.267 7.181,-15.667 3.106,-22.975 L 74.526,32.459 c 1.284,0.629 2.878,0.405 3.935,-0.67 l 3.273,-3.328 1.129,1.11 -0.462,0.469 c -0.31,0.316 -0.305,0.825 0.011,1.136 0.316,0.311 0.825,0.307 1.135,-0.009 l 1.945,-1.978 c 0.31,-0.316 0.306,-0.824 -0.01,-1.135 -0.317,-0.311 -0.826,-0.307 -1.137,0.008 l -0.461,0.469 -1.129,-1.11 2.917,-2.966 1.129,1.111 -0.461,0.469 c -0.31,0.316 -0.305,0.825 0.01,1.136 0.317,0.312 0.825,0.307 1.135,-0.008 l 1.944,-1.978 c 0.311,-0.316 0.308,-0.824 -0.009,-1.135 -0.316,-0.311 -0.825,-0.308 -1.137,0.008 l -0.46,0.468 -1.129,-1.111 2.916,-2.965 1.13,1.111 -0.461,0.469 c -0.312,0.316 -0.306,0.825 0.01,1.136 0.317,0.311 0.824,0.307 1.136,-0.009 l 1.944,-1.977 c 0.313,-0.319 0.309,-0.827 -0.008,-1.138 z M 35.665,80.017 c -0.747,0.761 -1.972,0.771 -2.732,0.023 L 20.302,67.617 c -0.76,-0.748 -0.77,-1.972 -0.023,-2.733 0.748,-0.76 1.973,-0.77 2.733,-0.022 l 12.63,12.422 c 0.761,0.749 0.771,1.973 0.023,2.733 z M 49.609,63.465 c -3.534,3.593 -9.311,3.641 -12.904,0.107 -3.593,-3.534 -3.641,-9.311 -0.107,-12.903 3.533,-3.593 9.311,-3.643 12.904,-0.109 3.594,3.533 3.641,9.311 0.107,12.905 z M 73.072,24.336 c -0.484,0.491 -1.274,0.497 -1.766,0.013 -0.49,-0.483 -0.499,-1.274 -0.015,-1.766 L 82.539,11.146 c 0.482,-0.491 1.274,-0.496 1.766,-0.013 0.492,0.484 0.499,1.275 0.016,1.766 z M 88.451,16.963 77.204,28.399 C 76.721,28.89 75.93,28.896 75.437,28.413 74.947,27.93 74.94,27.14 75.423,26.649 L 86.67,15.212 c 0.484,-0.491 1.274,-0.497 1.764,-0.015 0.493,0.483 0.5,1.274 0.017,1.766 z"
       id="path12"
       style="fill:url(#linearGradient214)" />
  </g>
</svg>
