<svg height="93" width="419" style="width: 419px; height: 93px; position: absolute; top: 50%; left: 50%; transform: translate(-50%, -50%) scale(1); z-index: 0; cursor: pointer;"><defs id="SvgjsDefs1001"><linearGradient id="SvgjsLinearGradient1015"><stop id="SvgjsStop1016" stop-color="#00ddff" offset="0"></stop><stop id="SvgjsStop1017" stop-color="#ff00d4" offset="1"></stop></linearGradient></defs><g id="SvgjsG1007" featurekey="rootContainer" transform="matrix(1,0,0,1,0,0)" fill="#ffa0e5">    <path xmlns="http://www.w3.org/2000/svg" fill-rule="nonzero" d="             M0,0             H419             V93             H0,0             z             M4,4             v85             h411             v-85             z     "></path></g><g id="SvgjsG1008" featurekey="nameLeftFeature-0" transform="matrix(2.3047372514608706,0,0,2.3047372514608706,17.000001098984363,18.352114162007027)" fill="#ffa0e5"><path d="M0.6 4.880000000000001 l7.28 0 c2.48 0.02 4.5 2.04 4.5 4.52 s-2.04 4.52 -4.52 4.52 l-3.36 0 c-0.86 0 -1.56 0.7 -1.56 1.58 l0 3.9 c0 0.32 -0.28 0.6 -0.62 0.6 s-0.6 -0.28 -0.6 -0.6 l0 -3.9 c0 -1.54 1.24 -2.8 2.78 -2.8 l3.36 0 c1.82 0 3.3 -1.48 3.3 -3.3 s-1.48 -3.3 -3.32 -3.3 l-6.62 0 l0 3.3 c0 0.34 -0.28 0.6 -0.62 0.6 c-0.32 0 -0.6 -0.26 -0.6 -0.6 l0 -3.92 c0 -0.32 0.28 -0.6 0.6 -0.6 z M7.86 6.6 c1.54 0 2.8 1.26 2.8 2.8 s-1.26 2.78 -2.8 2.78 l-3.34 0 c-1.82 0 -3.3 1.48 -3.3 3.3 l0 3.92 c0 0.32 -0.28 0.6 -0.62 0.6 c-0.32 0 -0.6 -0.28 -0.6 -0.6 l0 -3.92 c0 -2.5 2.02 -4.52 4.52 -4.52 l3.36 0 c0.86 0 1.56 -0.7 1.56 -1.56 c0 -0.88 -0.7 -1.58 -1.58 -1.58 c-0.32 0 -0.6 -0.26 -0.6 -0.6 s0.28 -0.62 0.6 -0.62 z M21.3 6.380000000000001 c1.62 0 3.14 0.62 4.28 1.76 c1.14 1.16 1.76 2.68 1.76 4.3 c0 0.32 -0.26 0.6 -0.6 0.6 c-0.32 0 -0.6 -0.28 -0.6 -0.6 c0 -1.3 -0.5 -2.52 -1.42 -3.44 c-0.92 -0.9 -2.14 -1.42 -3.42 -1.42 c-1.3 0 -2.52 0.52 -3.44 1.42 c-0.92 0.92 -1.42 2.14 -1.42 3.44 c0 0.8 -0.66 1.48 -1.48 1.48 s-1.48 -0.68 -1.48 -1.48 c0 -2.1 0.82 -4.06 2.28 -5.52 c3.06 -3.06 8 -3.06 11.06 0 c1.48 1.46 2.28 3.42 2.28 5.52 c0 2.08 -0.8 4.04 -2.28 5.52 s-3.44 2.28 -5.52 2.28 c-0.34 0 -0.62 -0.26 -0.62 -0.6 s0.28 -0.6 0.62 -0.6 c1.76 0 3.42 -0.7 4.66 -1.94 s1.94 -2.9 1.94 -4.66 s-0.7 -3.42 -1.94 -4.68 c-2.58 -2.56 -6.76 -2.56 -9.34 0 c-1.24 1.26 -1.92 2.92 -1.92 4.68 c0 0.18 0.1 0.3 0.28 0.3 c0.16 0 0.26 -0.1 0.26 -0.3 c0 -1.62 0.62 -3.14 1.76 -4.3 c1.14 -1.14 2.68 -1.76 4.3 -1.76 z M38.400000000000006 4.619999999999999 c2.1 0 4.06 0.82 5.52 2.28 c0.24 0.24 0.24 0.62 0 0.86 c-0.22 0.24 -0.62 0.24 -0.84 0 c-1.26 -1.24 -2.9 -1.92 -4.68 -1.94 c-3.62 0 -6.6 2.98 -6.6 6.6 c0 3.64 2.98 6.62 6.6 6.62 c1.78 0 3.44 -0.7 4.68 -1.94 c0.14 -0.14 0.08 -0.3 0 -0.38 c-0.1 -0.1 -0.26 -0.12 -0.38 0 c-1.16 1.16 -2.68 1.76 -4.3 1.76 c-3.34 0 -6.04 -2.7 -6.04 -6.06 c0 -1.6 0.62 -3.12 1.76 -4.28 c0.24 -0.22 0.62 -0.22 0.86 0 c0.24 0.24 0.24 0.62 0 0.86 c-0.92 0.92 -1.42 2.14 -1.42 3.42 c0 2.68 2.18 4.86 4.84 4.86 c1.3 0 2.52 -0.5 3.44 -1.42 c0.62 -0.62 1.5 -0.6 2.1 0 c0.64 0.64 0.62 1.48 0 2.1 c-1.48 1.48 -3.44 2.28 -5.54 2.28 c-4.3 0 -7.8 -3.5 -7.8 -7.82 c0 -4.3 3.5 -7.8 7.8 -7.8 z M53.74 6.380000000000001 c1.62 0 3.14 0.62 4.28 1.76 c1.14 1.16 1.76 2.68 1.76 4.3 c0 0.32 -0.26 0.6 -0.6 0.6 c-0.32 0 -0.6 -0.28 -0.6 -0.6 c0 -1.3 -0.5 -2.52 -1.42 -3.44 c-0.92 -0.9 -2.14 -1.42 -3.42 -1.42 c-1.3 0 -2.52 0.52 -3.44 1.42 c-0.92 0.92 -1.42 2.14 -1.42 3.44 c0 0.8 -0.66 1.48 -1.48 1.48 s-1.48 -0.68 -1.48 -1.48 c0 -2.1 0.82 -4.06 2.28 -5.52 c3.06 -3.06 8 -3.06 11.06 0 c1.48 1.46 2.28 3.42 2.28 5.52 c0 2.08 -0.8 4.04 -2.28 5.52 s-3.44 2.28 -5.52 2.28 c-0.34 0 -0.62 -0.26 -0.62 -0.6 s0.28 -0.6 0.62 -0.6 c1.76 0 3.42 -0.7 4.66 -1.94 s1.94 -2.9 1.94 -4.66 s-0.7 -3.42 -1.94 -4.68 c-2.58 -2.56 -6.76 -2.56 -9.34 0 c-1.24 1.26 -1.92 2.92 -1.92 4.68 c0 0.18 0.1 0.3 0.28 0.3 c0.16 0 0.26 -0.1 0.26 -0.3 c0 -1.62 0.62 -3.14 1.76 -4.3 c1.14 -1.14 2.68 -1.76 4.3 -1.76 z"></path></g><g id="SvgjsG1009" featurekey="inlineSymbolFeature-0" transform="matrix(0.7373214103257362,0,0,0.7373214103257362,174.28155671590235,9.533690407785922)" fill="url(#SvgjsLinearGradient1015)"><path xmlns="http://www.w3.org/2000/svg" d="M93.361,20.042c-0.316-0.311-0.825-0.308-1.136,0.009l-0.461,0.468l-1.13-1.111l1.225-1.246  c1.322-1.343,1.304-3.504-0.038-4.825l-5.717-5.621c-1.343-1.322-3.504-1.302-4.825,0.041l-1.225,1.246l-1.129-1.111l0.46-0.468  c0.311-0.316,0.307-0.824-0.008-1.135c-0.317-0.312-0.827-0.308-1.137,0.008l-1.945,1.977c-0.31,0.316-0.305,0.826,0.011,1.137  c0.316,0.311,0.825,0.306,1.135-0.009l0.461-0.469l1.129,1.11l-2.917,2.966l-1.129-1.111l0.461-0.469  c0.313-0.316,0.307-0.824-0.008-1.135c-0.317-0.31-0.826-0.308-1.137,0.009l-1.945,1.976c-0.31,0.316-0.304,0.826,0.012,1.137  c0.317,0.311,0.825,0.306,1.135-0.009l0.461-0.469l1.129,1.111l-2.917,2.967l-1.129-1.111l0.461-0.469  c0.31-0.316,0.306-0.825-0.009-1.135c-0.316-0.311-0.826-0.308-1.138,0.008l-1.944,1.977c-0.31,0.316-0.305,0.826,0.01,1.137  c0.316,0.311,0.825,0.307,1.136-0.009l0.461-0.469l1.129,1.111l-3.273,3.329c-1.057,1.075-1.255,2.672-0.604,3.945l-14.446,14.12  c-7.378-3.968-16.773-2.798-22.943,3.476c-1.072,1.09-1.983,2.277-2.745,3.529c-4.62,0.428-8.983,2.329-12.34,5.743  c-0.562,0.571-1.066,1.161-1.523,1.764c-0.636,0.508-1.25,1.055-1.833,1.649c-8.511,8.654-5.574,20.73,3.715,29.867  c9.291,9.137,21.415,11.873,29.926,3.219c0.585-0.595,1.122-1.219,1.621-1.864c0.594-0.467,1.175-0.979,1.736-1.55  c3.357-3.413,5.185-7.806,5.536-12.431c1.24-0.782,2.412-1.713,3.485-2.804c6.163-6.267,7.181-15.667,3.106-22.975l13.955-14.614  c1.284,0.629,2.878,0.405,3.935-0.67l3.273-3.328l1.129,1.11l-0.462,0.469c-0.31,0.316-0.305,0.825,0.011,1.136  c0.316,0.311,0.825,0.307,1.135-0.009l1.945-1.978c0.31-0.316,0.306-0.824-0.01-1.135c-0.317-0.311-0.826-0.307-1.137,0.008  l-0.461,0.469l-1.129-1.11l2.917-2.966l1.129,1.111l-0.461,0.469c-0.31,0.316-0.305,0.825,0.01,1.136  c0.317,0.312,0.825,0.307,1.135-0.008l1.944-1.978c0.311-0.316,0.308-0.824-0.009-1.135c-0.316-0.311-0.825-0.308-1.137,0.008  l-0.46,0.468l-1.129-1.111l2.916-2.965l1.13,1.111l-0.461,0.469c-0.312,0.316-0.306,0.825,0.01,1.136  c0.317,0.311,0.824,0.307,1.136-0.009l1.944-1.977C93.682,20.861,93.678,20.353,93.361,20.042z M35.665,80.017  c-0.747,0.761-1.972,0.771-2.732,0.023L20.302,67.617c-0.76-0.748-0.77-1.972-0.023-2.733c0.748-0.76,1.973-0.77,2.733-0.022  l12.63,12.422C36.403,78.033,36.413,79.257,35.665,80.017z M49.609,63.465c-3.534,3.593-9.311,3.641-12.904,0.107  c-3.593-3.534-3.641-9.311-0.107-12.903c3.533-3.593,9.311-3.643,12.904-0.109C53.096,54.093,53.143,59.871,49.609,63.465z   M73.072,24.336c-0.484,0.491-1.274,0.497-1.766,0.013c-0.49-0.483-0.499-1.274-0.015-1.766l11.248-11.437  c0.482-0.491,1.274-0.496,1.766-0.013c0.492,0.484,0.499,1.275,0.016,1.766L73.072,24.336z M88.451,16.963L77.204,28.399  c-0.483,0.491-1.274,0.497-1.767,0.014c-0.49-0.483-0.497-1.273-0.014-1.764L86.67,15.212c0.484-0.491,1.274-0.497,1.764-0.015  C88.927,15.68,88.934,16.471,88.451,16.963z"></path></g><g id="SvgjsG1010" featurekey="nameRightFeature-0" transform="matrix(2.3047372514608706,0,0,2.3047372514608706,248.94110078791684,18.352114162007027)" fill="#ffa0e5"><path d="M7.58 4.880000000000001 c0.8 0 1.46 0.66 1.46 1.46 l0 10.16 c0 0.3 0.26 0.56 0.56 0.56 l6.02 0 c0.82 0 1.48 0.66 1.48 1.46 c0 0.82 -0.66 1.48 -1.48 1.48 l-6.02 0 c-0.34 0 -0.6 -0.28 -0.6 -0.62 c0 -0.32 0.26 -0.6 0.6 -0.6 l6.02 0 c0.14 0 0.26 -0.12 0.26 -0.26 s-0.12 -0.24 -0.26 -0.24 l-6.02 0 c-0.98 0 -1.78 -0.8 -1.78 -1.78 l0 -10.14 c0 -0.14 -0.1 -0.26 -0.24 -0.26 c-0.16 0 -0.26 0.12 -0.26 0.26 l0 6.06 c0 0.34 -0.28 0.62 -0.62 0.62 c-0.32 0 -0.6 -0.28 -0.6 -0.62 l0 -6.08 c0 -0.8 0.66 -1.46 1.48 -1.46 z M26.419999999999998 6.380000000000001 c1.62 0 3.14 0.62 4.28 1.76 c1.14 1.16 1.76 2.68 1.76 4.3 c0 0.32 -0.26 0.6 -0.6 0.6 c-0.32 0 -0.6 -0.28 -0.6 -0.6 c0 -1.3 -0.5 -2.52 -1.42 -3.44 c-0.92 -0.9 -2.14 -1.42 -3.42 -1.42 c-1.3 0 -2.52 0.52 -3.44 1.42 c-0.92 0.92 -1.42 2.14 -1.42 3.44 c0 0.8 -0.66 1.48 -1.48 1.48 s-1.48 -0.68 -1.48 -1.48 c0 -2.1 0.82 -4.06 2.28 -5.52 c3.06 -3.06 8 -3.06 11.06 0 c1.48 1.46 2.28 3.42 2.28 5.52 c0 2.08 -0.8 4.04 -2.28 5.52 s-3.44 2.28 -5.52 2.28 c-0.34 0 -0.62 -0.26 -0.62 -0.6 s0.28 -0.6 0.62 -0.6 c1.76 0 3.42 -0.7 4.66 -1.94 s1.94 -2.9 1.94 -4.66 s-0.7 -3.42 -1.94 -4.68 c-2.58 -2.56 -6.76 -2.56 -9.34 0 c-1.24 1.26 -1.92 2.92 -1.92 4.68 c0 0.18 0.1 0.3 0.28 0.3 c0.16 0 0.26 -0.1 0.26 -0.3 c0 -1.62 0.62 -3.14 1.76 -4.3 c1.14 -1.14 2.68 -1.76 4.3 -1.76 z M43.52 4.619999999999999 c2.1 0 4.06 0.82 5.52 2.28 c0.24 0.24 0.24 0.62 0 0.86 c-0.22 0.24 -0.62 0.24 -0.84 0 c-1.26 -1.24 -2.9 -1.92 -4.68 -1.94 c-3.62 0 -6.6 2.98 -6.6 6.6 c0 3.64 2.98 6.62 6.6 6.62 c1.78 0 3.44 -0.7 4.68 -1.94 c0.14 -0.14 0.08 -0.3 0 -0.38 c-0.1 -0.1 -0.26 -0.12 -0.38 0 c-1.16 1.16 -2.68 1.76 -4.3 1.76 c-3.34 0 -6.04 -2.7 -6.04 -6.06 c0 -1.6 0.62 -3.12 1.76 -4.28 c0.24 -0.22 0.62 -0.22 0.86 0 c0.24 0.24 0.24 0.62 0 0.86 c-0.92 0.92 -1.42 2.14 -1.42 3.42 c0 2.68 2.18 4.86 4.84 4.86 c1.3 0 2.52 -0.5 3.44 -1.42 c0.62 -0.62 1.5 -0.6 2.1 0 c0.64 0.64 0.62 1.48 0 2.1 c-1.48 1.48 -3.44 2.28 -5.54 2.28 c-4.3 0 -7.8 -3.5 -7.8 -7.82 c0 -4.3 3.5 -7.8 7.8 -7.8 z M58.86 6.380000000000001 c1.62 0 3.14 0.62 4.28 1.76 c1.14 1.16 1.76 2.68 1.76 4.3 c0 0.32 -0.26 0.6 -0.6 0.6 c-0.32 0 -0.6 -0.28 -0.6 -0.6 c0 -1.3 -0.5 -2.52 -1.42 -3.44 c-0.92 -0.9 -2.14 -1.42 -3.42 -1.42 c-1.3 0 -2.52 0.52 -3.44 1.42 c-0.92 0.92 -1.42 2.14 -1.42 3.44 c0 0.8 -0.66 1.48 -1.48 1.48 s-1.48 -0.68 -1.48 -1.48 c0 -2.1 0.82 -4.06 2.28 -5.52 c3.06 -3.06 8 -3.06 11.06 0 c1.48 1.46 2.28 3.42 2.28 5.52 c0 2.08 -0.8 4.04 -2.28 5.52 s-3.44 2.28 -5.52 2.28 c-0.34 0 -0.62 -0.26 -0.62 -0.6 s0.28 -0.6 0.62 -0.6 c1.76 0 3.42 -0.7 4.66 -1.94 s1.94 -2.9 1.94 -4.66 s-0.7 -3.42 -1.94 -4.68 c-2.58 -2.56 -6.76 -2.56 -9.34 0 c-1.24 1.26 -1.92 2.92 -1.92 4.68 c0 0.18 0.1 0.3 0.28 0.3 c0.16 0 0.26 -0.1 0.26 -0.3 c0 -1.62 0.62 -3.14 1.76 -4.3 c1.14 -1.14 2.68 -1.76 4.3 -1.76 z"></path></g></svg>